<svg width="37" height="37" viewBox="0 0 37 37" fill="none" xmlns="http://www.w3.org/2000/svg">
<path d="M18.495 3.08252C27.0073 3.08252 33.9075 9.9827 33.9075 18.495C33.9075 27.0073 27.0073 33.9075 18.495 33.9075C9.9827 33.9075 3.08252 27.0073 3.08252 18.495C3.08252 9.9827 9.9827 3.08252 18.495 3.08252ZM18.495 6.16502C15.2249 6.16502 12.0887 7.46407 9.77639 9.77639C7.46407 12.0887 6.16502 15.2249 6.16502 18.495C6.16502 21.7651 7.46407 24.9013 9.77639 27.2136C12.0887 29.526 15.2249 30.825 18.495 30.825C21.7651 30.825 24.9013 29.526 27.2136 27.2136C29.526 24.9013 30.825 21.7651 30.825 18.495C30.825 15.2249 29.526 12.0887 27.2136 9.77639C24.9013 7.46407 21.7651 6.16502 18.495 6.16502ZM18.495 9.24752C18.8725 9.24757 19.2369 9.38616 19.519 9.63702C19.8011 9.88787 19.9813 10.2335 20.0255 10.6084L20.0363 10.7888V17.8569L24.2084 22.0291C24.4849 22.3065 24.6453 22.6786 24.6573 23.07C24.6692 23.4614 24.5318 23.8427 24.2728 24.1364C24.0138 24.4301 23.6527 24.6143 23.2629 24.6514C22.8731 24.6885 22.4838 24.5759 22.174 24.3364L22.0291 24.2084L17.4054 19.5847C17.1658 19.3449 17.012 19.0329 16.9676 18.6969L16.9538 18.495V10.7888C16.9538 10.38 17.1162 9.98798 17.4052 9.69894C17.6942 9.4099 18.0863 9.24752 18.495 9.24752Z" fill="#294900"/>
</svg>
