<svg width="32" height="32" viewBox="0 0 32 32" fill="none" xmlns="http://www.w3.org/2000/svg">
<path d="M15.125 10.5H21.2917V16.6667" fill="black"/>
<path d="M13.5833 2.79167H8.65C6.05976 2.79167 4.76464 2.79167 3.77529 3.29576C2.90504 3.73918 2.19751 4.44671 1.75409 5.31696C1.25 6.3063 1.25 7.60142 1.25 10.1917V23.1417C1.25 25.7319 1.25 27.027 1.75409 28.0164C2.19751 28.8866 2.90504 29.5942 3.77529 30.0376C4.76464 30.5417 6.05976 30.5417 8.65 30.5417H21.6C24.1902 30.5417 25.4854 30.5417 26.4747 30.0376C27.345 29.5942 28.0525 28.8866 28.4959 28.0164C29 27.027 29 25.7319 29 23.1417V18.2083M15.125 10.5H21.2917V16.6667M20.5208 3.5625V1.25M26.594 5.19768L28.2292 3.5625M28.245 11.2708H30.5575M1.25 18.7435C2.25507 18.8986 3.2848 18.9792 4.33333 18.9792C11.0956 18.9792 17.0757 15.63 20.7053 10.5" stroke="#294900" stroke-width="2.5" stroke-linecap="round" stroke-linejoin="round"/>
</svg>
