<svg width="36" height="36" viewBox="0 0 36 36" fill="none" xmlns="http://www.w3.org/2000/svg">
<path d="M24.5708 5.00757C23.6807 5.00757 22.8499 5.17485 22.0776 5.50854C21.3025 5.84347 20.6243 6.30269 20.0415 6.8855C19.4587 7.46832 18.9995 8.14651 18.6646 8.92163C18.3307 9.69417 18.1586 10.53 18.1489 11.4304C18.149 11.7637 18.1779 12.087 18.2349 12.4001C18.293 12.7197 18.3605 13.0394 18.438 13.3591L18.4575 13.4412L18.3989 13.4998L5.85889 26.0544H5.85791C5.58809 26.3243 5.37897 26.6361 5.22998 26.99C5.08147 27.3428 5.00735 27.7142 5.00732 28.1052C5.00732 28.4962 5.08154 28.8677 5.22998 29.2205C5.37879 29.5739 5.58822 29.88 5.85693 30.1394C6.12751 30.4006 6.43459 30.6063 6.77979 30.7556C7.12173 30.9035 7.49292 30.9822 7.89404 30.9919C8.28523 30.9919 8.65735 30.9179 9.01025 30.7693C9.36395 30.6203 9.67509 30.4111 9.94482 30.1414L22.4995 17.6013L22.5591 17.5417L22.6401 17.5623C22.96 17.6398 23.2803 17.7072 23.6001 17.7654C23.9135 17.8223 24.2372 17.8513 24.5708 17.8513C25.4607 17.8513 26.2908 17.683 27.063 17.3494C27.8381 17.0144 28.5173 16.5562 29.1001 15.9734C29.6828 15.3907 30.1412 14.7122 30.4761 13.9373C30.8097 13.1651 30.9819 12.3294 30.9917 11.4294L30.9868 11.1687C30.965 10.6438 30.8761 10.1334 30.7222 9.63647L25.6147 14.7322L25.5093 14.8376L21.1626 10.491L21.2671 10.3855L26.3618 5.27612C25.7836 5.09727 25.1868 5.0076 24.5708 5.00757ZM33.1675 11.4294C33.1675 12.2146 33.0679 12.9709 32.8687 13.698C32.6697 14.4241 32.3815 15.1108 32.0034 15.7576C31.6253 16.4043 31.1718 16.9868 30.644 17.5046C30.1173 18.0214 29.5359 18.4688 28.8999 18.8464C28.2625 19.2249 27.5804 19.5136 26.854 19.7126C26.1274 19.9117 25.3668 20.0162 24.5728 20.0261H24.5708C24.3417 20.0261 24.1123 20.0167 23.8833 19.9968C23.6787 19.979 23.4703 19.9513 23.2583 19.9177L11.4907 31.6873C11.008 32.17 10.4584 32.5376 9.84326 32.7898C9.22831 33.0418 8.5777 33.1677 7.89404 33.1677C7.20022 33.1677 6.54479 33.0366 5.9292 32.7742C5.31533 32.5125 4.78076 32.1495 4.32666 31.6853C3.87377 31.2223 3.51165 30.6841 3.24072 30.072C2.96811 29.456 2.83154 28.7998 2.83154 28.1052C2.83157 27.4312 2.95762 26.7862 3.20947 26.1716C3.46151 25.5567 3.82976 25.0028 4.31201 24.5105L4.31299 24.5095L16.0806 12.741C16.0472 12.5379 16.0211 12.3348 16.0034 12.1316C15.9835 11.9023 15.9731 11.6682 15.9731 11.4294C15.9731 10.6444 16.0728 9.88796 16.272 9.16089C16.471 8.43462 16.76 7.7472 17.1382 7.10034C17.5163 6.4537 17.9689 5.871 18.4966 5.35327C19.0233 4.83649 19.6048 4.38909 20.2407 4.01147C20.8781 3.63305 21.5603 3.34429 22.2866 3.14526C23.0133 2.94617 23.7747 2.84171 24.5688 2.83179H24.5708C25.1058 2.8318 25.5985 2.87195 26.0483 2.9519C26.4982 3.03188 26.9381 3.15709 27.3677 3.3269C27.792 3.49467 28.2021 3.6772 28.5972 3.87476C28.9844 4.06839 28.8261 3.96794 29.2827 4.24585L29.4438 4.34448L29.311 4.47827L23.7856 10.0476L25.7368 11.9109L31.3813 6.44312L31.519 6.3103L31.6147 6.47534C31.8712 6.91928 31.9052 7.00153 32.1099 7.40112C32.3171 7.80582 32.5045 8.21585 32.6724 8.63062C32.8428 9.05181 32.9635 9.48812 33.0337 9.93921C33.1032 10.386 33.1477 10.8812 33.1675 11.4236V11.4294Z" fill="#294900" stroke="#294900" stroke-width="0.29812"/>
</svg>
