<svg width="37" height="37" viewBox="0 0 37 37" fill="none" xmlns="http://www.w3.org/2000/svg">
<path d="M19.5767 3.38313L30.3655 7.42892C30.9532 7.64921 31.4596 8.04365 31.8171 8.55951C32.1746 9.07536 32.3661 9.68806 32.366 10.3157V18.5814C32.3661 21.1575 31.6488 23.6827 30.2945 25.8741C28.9402 28.0654 27.0024 29.8364 24.6983 30.9885L19.529 33.5731C19.2079 33.7337 18.8538 33.8174 18.4948 33.8174C18.1358 33.8174 17.7817 33.7337 17.4606 33.5731L12.2913 30.9885C9.98714 29.8364 8.04938 28.0654 6.69508 25.8741C5.34079 23.6827 4.62348 21.1575 4.62354 18.5814V10.3157C4.62346 9.68806 4.81496 9.07536 5.17246 8.55951C5.52995 8.04365 6.03639 7.64921 6.62408 7.42892L17.4128 3.38313C18.1104 3.12164 18.8791 3.12164 19.5767 3.38313ZM18.4948 6.2699L7.70604 10.3157V18.5814C7.70639 20.5848 8.26457 22.5486 9.31805 24.2526C10.3715 25.9567 11.8787 27.3338 13.6707 28.2296L18.4948 30.6448L23.3189 28.2327C25.1114 27.3367 26.6188 25.9591 27.6723 24.2544C28.7258 22.5498 29.2838 20.5853 29.2835 18.5814V10.3157L18.4948 6.2699Z" fill="#294900"/>
<path d="M25.285 14.4064C25.3944 14.2729 25.4759 14.1189 25.5248 13.9535C25.5736 13.788 25.5888 13.6144 25.5694 13.4429C25.5501 13.2715 25.4965 13.1057 25.4119 12.9553C25.3274 12.8049 25.2135 12.673 25.0771 12.5673C24.7996 12.3502 24.4484 12.2501 24.0981 12.2882C23.7479 12.3263 23.4264 12.4997 23.2021 12.7714L16.9459 20.4453L13.6004 17.8747C13.3271 17.6523 12.9778 17.5454 12.6268 17.5768C12.2759 17.6083 11.9511 17.7755 11.7217 18.0429C11.6096 18.1741 11.5249 18.3264 11.4727 18.4908C11.4205 18.6553 11.4017 18.8285 11.4176 19.0003C11.4334 19.1721 11.4836 19.339 11.565 19.491C11.6465 19.6431 11.7576 19.7774 11.8918 19.8858L16.2768 23.3069C16.5537 23.5321 16.9085 23.6387 17.2637 23.6033C17.6188 23.5678 17.9456 23.3933 18.1726 23.1179L25.2794 14.3856L25.285 14.4064Z" fill="#294900"/>
</svg>
