<svg width="68" height="53" viewBox="0 0 68 53" fill="none" xmlns="http://www.w3.org/2000/svg">
<path opacity="0.3" d="M22.3501 1.50019C24.0501 0.500188 25.6001 0.800191 27.0001 2.40019C28.4001 3.90019 28.4001 5.30019 27.0001 6.60019C23.9001 9.80019 21.7501 12.2502 20.5501 13.9502C19.3501 15.6502 18.6501 17.5002 18.4501 19.5002C18.2501 21.7002 18.9001 22.8002 20.4001 22.8002C23.4001 22.8002 25.9501 24.1502 28.0501 26.8502C30.1501 29.4502 31.2001 32.7502 31.2001 36.7502C31.2001 41.5502 29.8001 45.4502 27.0001 48.4502C24.3001 51.3502 20.6501 52.8002 16.0501 52.8002C11.6501 52.8002 7.8501 51.1502 4.6501 47.8502C1.5501 44.5502 9.78932e-05 40.1502 9.78932e-05 34.6502C9.78932e-05 21.6502 7.4501 10.6002 22.3501 1.50019ZM58.936 1.50019C60.636 0.500188 62.186 0.800191 63.586 2.40019C64.986 3.90019 64.986 5.30019 63.586 6.60019C60.486 9.80019 58.336 12.2502 57.136 13.9502C55.936 15.6502 55.236 17.5002 55.036 19.5002C54.836 21.7002 55.486 22.8002 56.986 22.8002C59.986 22.8002 62.536 24.1502 64.636 26.8502C66.736 29.4502 67.786 32.7502 67.786 36.7502C67.786 41.5502 66.386 45.4502 63.586 48.4502C60.886 51.3502 57.236 52.8002 52.636 52.8002C48.236 52.8002 44.436 51.1502 41.236 47.8502C38.136 44.5502 36.586 40.1502 36.586 34.6502C36.586 21.6502 44.036 10.6002 58.936 1.50019Z" fill="white"/>
</svg>
