<svg width="30" height="30" viewBox="0 0 30 30" fill="none" xmlns="http://www.w3.org/2000/svg">
<path fill-rule="evenodd" clip-rule="evenodd" d="M24.3747 11.9507C24.4165 17.1281 20.1018 21.9168 14.9243 21.875C9.74685 21.8332 5.66709 16.9768 5.62531 11.7993C5.58353 6.62185 9.74685 2.45853 14.9243 2.50031C20.1018 2.54209 24.3329 6.77315 24.3747 11.9507ZM15.6326 6.56253C15.1148 6.55835 14.6917 6.97468 14.6875 7.49243C14.6834 8.01018 15.0997 8.43329 15.6174 8.43747C17.1601 8.44992 18.4251 9.71493 18.4375 11.2576C18.4417 11.7753 18.8648 12.1916 19.3826 12.1875C19.9003 12.1833 20.3166 11.7602 20.3125 11.2424C20.2918 8.6761 18.1989 6.58324 15.6326 6.56253Z" fill="#FF6C0A"/>
<path d="M17.7087 22.768C18.124 24.0959 17.2634 25.4326 15.9376 25.702V27.4998C15.9376 28.0176 15.5179 28.4373 15.0001 28.4373C14.4823 28.4373 14.0626 28.0176 14.0626 27.4998V25.702C12.7368 25.4326 11.8762 24.0959 12.2915 22.768L12.3001 22.7413C13.1305 22.9834 14.0054 23.1174 14.9144 23.1248C15.8781 23.1325 16.8117 22.9966 17.6994 22.7386C17.7027 22.7485 17.7057 22.7583 17.7087 22.768Z" fill="#FF6C0A"/>
</svg>
