<svg width="30" height="30" viewBox="0 0 30 30" fill="none" xmlns="http://www.w3.org/2000/svg">
<path fill-rule="evenodd" clip-rule="evenodd" d="M27.2977 13.9079L27.0112 16.9519C26.5392 21.9677 26.3032 24.4756 24.8249 25.9878C23.3466 27.5 21.131 27.5 16.6999 27.5H13.3001C8.86896 27.5 6.65339 27.5 5.17512 25.9878C3.69685 24.4756 3.46082 21.9677 2.98875 16.9519L2.70226 13.9079C2.47725 11.5171 2.36475 10.3217 2.77373 9.82759C2.99497 9.56029 3.29582 9.3965 3.61748 9.36825C4.21211 9.31602 4.95885 10.1661 6.45234 11.8663C7.22471 12.7456 7.61089 13.1853 8.04172 13.2533C8.28043 13.2911 8.52365 13.2523 8.74407 13.1414C9.14189 12.9412 9.40712 12.3976 9.93759 11.3106L12.7337 5.58107C13.7361 3.52702 14.2373 2.5 15 2.5C15.7627 2.5 16.2639 3.52702 17.2663 5.58107L20.0624 11.3106C20.5929 12.3976 20.8581 12.9412 21.2559 13.1414C21.4764 13.2523 21.7196 13.2911 21.9583 13.2533C22.3891 13.1853 22.7753 12.7456 23.5477 11.8663C25.0411 10.1661 25.7879 9.31602 26.3825 9.36825C26.7042 9.3965 27.005 9.56029 27.2263 9.82759C27.6353 10.3217 27.5227 11.5171 27.2977 13.9079ZM16.1905 15.8738L16.0676 15.6533C15.5926 14.8012 15.3551 14.3752 15 14.3752C14.6449 14.3752 14.4074 14.8012 13.9324 15.6533L13.8095 15.8738C13.6746 16.1159 13.6071 16.237 13.5019 16.3169C13.3966 16.3968 13.2656 16.4264 13.0035 16.4857L12.7648 16.5397C11.8424 16.7484 11.3813 16.8528 11.2715 17.2056C11.1618 17.5584 11.4762 17.9261 12.105 18.6614L12.2677 18.8517C12.4464 19.0606 12.5358 19.1651 12.5759 19.2943C12.6161 19.4236 12.6026 19.563 12.5756 19.8418L12.551 20.0956C12.456 21.0767 12.4084 21.5672 12.6957 21.7853C12.9829 22.0033 13.4148 21.8045 14.2784 21.4069L14.5018 21.304C14.7472 21.191 14.8699 21.1345 15 21.1345C15.1301 21.1345 15.2528 21.191 15.4982 21.304L15.7216 21.4069C16.5852 21.8045 17.0171 22.0033 17.3043 21.7853C17.5916 21.5672 17.544 21.0767 17.449 20.0956L17.4244 19.8418C17.3974 19.563 17.3839 19.4236 17.4241 19.2943C17.4642 19.1651 17.5536 19.0606 17.7323 18.8517L17.895 18.6614C18.5238 17.9261 18.8382 17.5584 18.7285 17.2056C18.6187 16.8528 18.1576 16.7484 17.2352 16.5397L16.9965 16.4857C16.7344 16.4264 16.6034 16.3968 16.4981 16.3169C16.3929 16.237 16.3254 16.1159 16.1905 15.8738Z" fill="#6315AD"/>
</svg>
