<svg width="30" height="30" viewBox="0 0 30 30" fill="none" xmlns="http://www.w3.org/2000/svg">
<path fill-rule="evenodd" clip-rule="evenodd" d="M11.676 26.3375C9.72605 25.4625 8.15105 24.125 7.11355 22.35C6.85105 21.9 6.27605 21.75 5.82605 22.0125C5.37605 22.275 5.22605 22.85 5.48855 23.3C6.73855 25.45 8.63855 27.0375 10.901 28.05C11.376 28.2625 11.926 28.05 12.1385 27.575C12.351 27.1 12.1385 26.55 11.6635 26.3375H11.676Z" fill="#1212A9"/>
<path fill-rule="evenodd" clip-rule="evenodd" d="M19.101 3.32502C20.876 2.82502 22.676 3.30002 23.951 4.58752C24.3135 4.96252 24.901 4.96252 25.276 4.60002C25.651 4.23752 25.651 3.65002 25.2885 3.27502C23.526 1.48752 21.001 0.825019 18.5885 1.51252C18.0885 1.65002 17.801 2.17502 17.9385 2.67502C18.076 3.17502 18.601 3.46252 19.101 3.32502Z" fill="#1212A9"/>
<path fill-rule="evenodd" clip-rule="evenodd" d="M24.7385 12.3L21.576 6.88752C21.3135 6.42502 20.526 6.15002 19.7385 6.60002C18.951 7.05002 18.8135 7.85002 19.076 8.30002L21.176 11.9125C21.301 12.125 21.3385 12.3875 21.276 12.625C21.2135 12.8625 21.051 13.075 20.8385 13.2C18.9135 14.3 18.3135 16.4375 19.1635 17.875C19.426 18.325 19.276 18.9 18.826 19.1625C18.376 19.425 17.801 19.275 17.5385 18.825C16.401 16.8625 16.8635 14.5125 18.326 12.85C18.7385 12.3875 18.876 11.7125 18.5635 11.175L14.2885 3.83752C14.026 3.37502 13.2385 3.10002 12.451 3.55002C11.6635 4.00002 11.526 4.80002 11.7885 5.25002L14.951 10.6625C15.2135 11.1125 15.0635 11.6875 14.6135 11.95C14.1635 12.2125 13.5885 12.0625 13.326 11.6125L9.12605 4.37502C8.86355 3.91252 8.07605 3.63752 7.28855 4.08752C6.50105 4.53752 6.36355 5.33752 6.62605 5.78752L11.3635 13.9125C11.626 14.3625 11.476 14.9375 11.026 15.2C10.576 15.4625 10.001 15.3125 9.73855 14.8625L7.63855 11.25C7.37605 10.7875 6.58855 10.5125 5.80105 10.9625C5.00105 11.4125 4.86355 12.2 5.12605 12.6625L9.86355 20.7875C11.876 24.2375 16.8385 25.35 21.051 22.95C25.251 20.55 26.751 15.75 24.751 12.3H24.7385Z" fill="#1212A9"/>
</svg>
