<svg width="30" height="30" viewBox="0 0 30 30" fill="none" xmlns="http://www.w3.org/2000/svg">
<path d="M7.77761 5.75118C8.33331 5.37987 8.9168 5.05783 9.52138 4.78708C11.2362 4.01911 12.0936 3.63512 13.2343 4.37413C14.375 5.11314 14.375 6.32539 14.375 8.74988V10.6249C14.375 12.9819 14.375 14.1604 15.1072 14.8927C15.8395 15.6249 17.018 15.6249 19.375 15.6249H21.25C23.6745 15.6249 24.8868 15.6249 25.6258 16.7656C26.3648 17.9062 25.9808 18.7637 25.2128 20.4785C24.9421 21.0831 24.62 21.6666 24.2487 22.2223C22.9439 24.1751 21.0892 25.6972 18.9194 26.596C16.7495 27.4947 14.3618 27.7299 12.0583 27.2717C9.75478 26.8135 7.63886 25.6825 5.97811 24.0218C4.31736 22.361 3.18638 20.2451 2.72818 17.9416C2.26998 15.6381 2.50515 13.2504 3.40394 11.0805C4.30273 8.91065 5.82477 7.05603 7.77761 5.75118Z" fill="#1BC285"/>
<path d="M26.8075 8.83626C25.7928 6.26039 23.7396 4.20724 21.1638 3.19248C19.2368 2.43336 17.5 4.17895 17.5 6.25002V11.25C17.5 11.9404 18.0596 12.5 18.75 12.5H23.75C25.8211 12.5 27.5667 10.7632 26.8075 8.83626Z" fill="#1BC285"/>
</svg>
